<svg width="50" height="50" viewBox="0 0 50 50" fill="none" xmlns="http://www.w3.org/2000/svg">
<g clip-path="url(#clip0_86_1413)">
<path d="M25 48.4638C37.9587 48.4638 48.4638 37.9587 48.4638 25C48.4638 12.0412 37.9587 1.53613 25 1.53613C12.0412 1.53613 1.53613 12.0412 1.53613 25C1.53613 37.9587 12.0412 48.4638 25 48.4638Z" fill="#D660CC"/>
<path d="M48.4022 23.3011L37.374 12.2729L9.92041 40.0795L16.8494 47.0085C19.3882 47.9492 22.1339 48.4638 25 48.4638C37.9586 48.4638 48.4638 37.9586 48.4638 25C48.4638 24.4286 48.4423 23.8623 48.4022 23.3011Z" fill="#8F3E89"/>
</g>
<path d="M36.3215 18.846L37.8917 9.45506L28.6238 11.6367L6.85356 34.8823C5.94356 35.8539 5.99354 37.3792 6.9652 38.2891L11.1445 42.2032C12.1161 43.1132 13.6414 43.0632 14.5511 42.0915L36.3215 18.846Z" fill="#FFC91B"/>
<path d="M11.149 42.2032L8.97178 40.1641L37.7539 9.48876L37.8961 9.45528L36.3259 18.8462L14.5555 42.0918C13.6458 43.0632 12.1206 43.1132 11.149 42.2032Z" fill="#E5AC0E"/>
<path d="M37.8962 9.45476L37.3664 12.644L34.7485 10.1922L37.8962 9.45476Z" fill="#263A7A"/>
<path d="M37.754 9.48857L37.896 9.4553L37.3662 12.6445L35.9964 11.3616L37.754 9.48857Z" fill="#121149"/>
<path d="M11.1491 42.2035L6.96978 38.2894C5.99811 37.3794 5.94813 35.8541 6.85814 34.8826L9.92554 31.6073L17.6233 38.8166L14.5557 42.092C13.6459 43.0635 12.1206 43.1135 11.1491 42.2035Z" fill="#FF7F4F"/>
<path d="M11.1447 42.2033L8.96746 40.1643L13.6872 35.134L17.6189 38.8163L14.5513 42.0917C13.6415 43.0634 12.1163 43.1134 11.1447 42.2033Z" fill="#FF5419"/>
<path d="M28.6281 11.6368L34.7484 10.1926L37.3663 12.6444L36.3259 18.8461L28.6281 11.6368Z" fill="#FFEDB5"/>
<path d="M35.9921 11.3615L37.3619 12.6444L36.3215 18.8461L32.4083 15.1812L35.9921 11.3615Z" fill="#FEE187"/>
<path d="M17.8943 17.9936C16.6858 19.3007 16.8324 21.3568 18.2142 22.4792L39.6312 39.8762C40.1692 40.3131 40.9541 40.2572 41.4246 39.7483C41.895 39.2395 41.8895 38.4525 41.4116 37.9505L22.3912 17.9614C21.164 16.6718 19.1027 16.6866 17.8943 17.9936Z" fill="#FFC61B"/>
<path d="M41.4248 39.7487C41.3863 39.7904 41.3448 39.828 41.3023 39.8636L17.8348 18.0654C17.8554 18.0419 17.873 18.017 17.8942 17.9941C19.1026 16.687 21.1639 16.6722 22.3911 17.9617L41.4119 37.951C41.8896 38.4529 41.8954 39.2399 41.4248 39.7487Z" fill="#EDB015"/>
<path d="M12.3103 19.1186C14.1824 20.8495 17.1033 20.7349 18.8342 18.8628C20.565 16.9907 20.4505 14.0699 18.5784 12.3389C16.7062 10.6081 8.66459 9.46079 8.66459 9.46079C8.66459 9.46079 10.4381 17.3877 12.3103 19.1186Z" fill="#FFEDB5"/>
<path d="M18.7672 18.9315L8.6895 9.57073C8.67328 9.49999 8.66446 9.46111 8.66446 9.46111C8.66446 9.46111 16.7059 10.6083 18.578 12.3393C20.4501 14.0701 20.5647 16.9909 18.8339 18.8629C18.8122 18.8863 18.7893 18.9084 18.7672 18.9315Z" fill="#FDE085"/>
<defs>
<clipPath id="clip0_86_1413">
<rect width="46.9277" height="46.9277" fill="white" transform="translate(1.53613 1.53613)"/>
</clipPath>
</defs>
</svg>
