<svg width="24" height="24" viewBox="0 0 24 24" fill="none" xmlns="http://www.w3.org/2000/svg">
<path d="M17.9998 7.5V10.5M17.9998 10.5V13.5M17.9998 10.5H20.9998M17.9998 10.5H14.9998M12.7498 6.375C12.7498 7.27011 12.3942 8.12855 11.7612 8.76149C11.1283 9.39442 10.2699 9.75 9.37476 9.75C8.47965 9.75 7.62121 9.39442 6.98827 8.76149C6.35533 8.12855 5.99976 7.27011 5.99976 6.375C5.99976 5.47989 6.35533 4.62145 6.98827 3.98851C7.62121 3.35558 8.47965 3 9.37476 3C10.2699 3 11.1283 3.35558 11.7612 3.98851C12.3942 4.62145 12.7498 5.47989 12.7498 6.375ZM2.99976 19.235V19.125C2.99976 17.4342 3.67141 15.8127 4.86695 14.6172C6.06249 13.4216 7.684 12.75 9.37476 12.75C11.0655 12.75 12.687 13.4216 13.8826 14.6172C15.0781 15.8127 15.7498 17.4342 15.7498 19.125V19.234C13.8252 20.3931 11.6204 21.0038 9.37376 21C7.04276 21 4.86176 20.355 2.99976 19.234V19.235Z" stroke="#D660CC" stroke-width="1.5" stroke-linecap="round" stroke-linejoin="round"/>
</svg>
