<svg width="20" height="20" viewBox="0 0 20 20" fill="none" xmlns="http://www.w3.org/2000/svg">
<path d="M7.87924 5.519C9.05024 4.494 10.9502 4.494 12.1212 5.519C13.2932 6.544 13.2932 8.206 12.1212 9.231C11.9182 9.41 11.6912 9.557 11.4512 9.673C10.7062 10.034 10.0012 10.672 10.0012 11.5V12.25M19.0002 10C19.0002 11.1819 18.7675 12.3522 18.3152 13.4442C17.8629 14.5361 17.1999 15.5282 16.3642 16.364C15.5285 17.1997 14.5363 17.8626 13.4444 18.3149C12.3525 18.7672 11.1821 19 10.0002 19C8.81835 19 7.64802 18.7672 6.55609 18.3149C5.46416 17.8626 4.47201 17.1997 3.63628 16.364C2.80056 15.5282 2.13762 14.5361 1.68533 13.4442C1.23304 12.3522 1.00024 11.1819 1.00024 10C1.00024 7.61305 1.94846 5.32387 3.63628 3.63604C5.32411 1.94821 7.6133 1 10.0002 1C12.3872 1 14.6764 1.94821 16.3642 3.63604C18.052 5.32387 19.0002 7.61305 19.0002 10ZM10.0002 15.25H10.0082V15.258H10.0002V15.25Z" stroke="#fff" stroke-width="1.5" stroke-linecap="round" stroke-linejoin="round"/>
</svg>
